<svg width="44" height="44" viewBox="0 0 44 44" fill="none" xmlns="http://www.w3.org/2000/svg">
<g clip-path="url(#clip0_4201_11)">
<path d="M0 8C0 3.58172 3.58172 0 8 0H36C40.4183 0 44 3.58172 44 8V36C44 40.4183 40.4183 44 36 44H8C3.58172 44 0 40.4183 0 36V8Z" fill="black"/>
<path d="M39.3193 21.3438C39.3192 16.3719 36.2172 13.2695 31.5312 13.2695C26.8014 13.2696 23.7657 16.4379 23.7656 21.3438L23.7744 21.7812C23.9524 26.1094 26.7791 29.1299 31.0947 29.3203L31.5312 29.3301C36.2393 29.3301 39.3193 26.0518 39.3193 21.3438ZM34.8652 21.3438C34.8652 19.7939 34.5137 18.6617 33.9609 17.9404C33.436 17.2557 32.6578 16.8438 31.5312 16.8438C30.395 16.8438 29.6264 17.2462 29.1123 17.916C28.5683 18.625 28.2198 19.7541 28.2197 21.3438C28.2197 22.8753 28.5786 23.9825 29.1318 24.6846C29.6601 25.3547 30.4417 25.7559 31.5537 25.7559V26.7559L31.2969 26.75C28.7694 26.6294 27.3147 24.713 27.2236 21.6533L27.2197 21.3438C27.2198 17.912 28.7154 15.8438 31.5312 15.8438C34.3472 15.8438 35.8652 17.9779 35.8652 21.3438C35.8652 24.7096 34.3255 26.7557 31.5537 26.7559V25.7559C32.6682 25.7558 33.4411 25.3588 33.9619 24.6953C34.5093 23.9978 34.8652 22.891 34.8652 21.3438ZM40.3193 21.3438C40.3193 23.9181 39.4737 26.1764 37.9102 27.7969C36.343 29.4211 34.1259 30.3301 31.5312 30.3301C28.9362 30.33 26.7241 29.4204 25.1621 27.7949C23.6043 26.1737 22.7656 23.916 22.7656 21.3438C22.7657 18.684 23.5916 16.3999 25.1533 14.7744C26.7191 13.1448 28.9359 12.2696 31.5312 12.2695C34.1002 12.2695 36.3206 13.1252 37.8984 14.7441C39.4742 16.3613 40.3193 18.6479 40.3193 21.3438Z" fill="url(#paint0_linear_4201_11)"/>
<path d="M5.1709 28.7139C5.1709 28.8678 5.30314 28.9999 5.45703 29H7.96484C8.11884 29 8.25098 28.8679 8.25098 28.7139V24.1377L8.1416 18.9023L8.09766 17.6699L12.1895 28.7363C12.2555 28.8901 12.4092 28.9999 12.585 29H14.6533L14.7178 28.9951C14.8658 28.9721 14.9887 28.871 15.0273 28.7363L18.7676 18.1543L18.7451 18.8584L18.6357 24.1377V28.7139C18.6357 28.8677 18.7671 28.9998 18.9209 29H21.7598L21.8154 28.9941C21.944 28.9669 22.0449 28.8487 22.0449 28.7139L21.8691 21.2998L22.0449 13.8857C22.0448 13.751 21.9439 13.6337 21.8154 13.6064L21.7598 13.5996V12.5996C22.4658 12.5999 23.0448 13.1797 23.0449 13.8857V13.9102L22.8691 21.2998L23.0449 28.6904V28.7139C23.0449 29.42 22.4658 29.9997 21.7598 30H18.9209C18.2148 29.9998 17.6357 29.42 17.6357 28.7139V24.3555L15.9697 29.0693C15.771 29.6632 15.2067 30 14.6533 30H12.585C11.9866 29.9999 11.485 29.6303 11.2705 29.1299L11.2598 29.1064L11.251 29.083L9.24023 23.6465L9.25098 24.1172V28.7139C9.25098 29.4202 8.67113 30 7.96484 30H5.45703C4.75086 29.9999 4.1709 29.4201 4.1709 28.7139V28.7021L4.17188 28.6904L4.34668 21.2998L4.17188 13.9102L4.1709 13.8975V13.8857C4.17104 13.1797 4.75095 12.5998 5.45703 12.5996V13.5996C5.30323 13.5998 5.17104 13.7319 5.1709 13.8857L5.34766 21.2998L5.1709 28.7139ZM18.085 13.5996C17.9091 13.5997 17.7549 13.7104 17.7109 13.8643L13.8613 24.8643L9.79102 13.8643C9.73325 13.7295 9.60829 13.6286 9.45996 13.6055L9.39551 13.5996V12.5996C9.99373 12.5997 10.4953 12.9694 10.71 13.4697L10.7207 13.4932L10.7295 13.5166L13.834 21.9102L16.7676 13.5332C16.9655 12.9378 17.5308 12.5997 18.085 12.5996V13.5996ZM21.7598 12.5996V13.5996H18.085V12.5996H21.7598ZM9.39551 12.5996V13.5996H5.45703V12.5996H9.39551Z" fill="url(#paint1_linear_4201_11)"/>
</g>
<defs>
<linearGradient id="paint0_linear_4201_11" x1="31.5425" y1="12.2695" x2="31.5425" y2="30.3301" gradientUnits="userSpaceOnUse">
<stop stop-color="#FF93FB"/>
<stop offset="1" stop-color="#81ABFF"/>
</linearGradient>
<linearGradient id="paint1_linear_4201_11" x1="13.6079" y1="12.5996" x2="13.6079" y2="30" gradientUnits="userSpaceOnUse">
<stop stop-color="#FF93FB"/>
<stop offset="1" stop-color="#81ABFF"/>
</linearGradient>
<clipPath id="clip0_4201_11">
<rect width="44" height="44" fill="white"/>
</clipPath>
</defs>
</svg>
